<svg xmlns="http://www.w3.org/2000/svg" width="49.782" height="74.049" viewBox="0 0 49.782 74.049">
  <g id="Group_311" data-name="Group 311" transform="translate(-7.766 -6.553)" style="isolation: isolate">
    <path id="Path_108" data-name="Path 108" d="M68.476,35.673H53.5L64.088,25.08a1.679,1.679,0,0,0-2.375-2.375L51.121,33.3V18.317a1.679,1.679,0,1,0-3.359,0V33.3L37.17,22.705A1.679,1.679,0,1,0,34.8,25.08L45.388,35.673H30.407a1.679,1.679,0,1,0,0,3.359h14.98L34.8,49.624A1.679,1.679,0,1,0,37.17,52L47.762,41.406V63.45a1.679,1.679,0,1,0,3.359,0V41.406L61.714,52a1.679,1.679,0,0,0,2.375-2.375L53.5,39.032H68.476a1.679,1.679,0,1,0,0-3.359Z" transform="translate(-16.785 -10.085)" fill="#2d2f4e" style="mix-blend-mode: multiply;isolation: isolate"/>
    <path id="Path_110" data-name="Path 110" d="M68.838,115.719,46.2,126.612,23.477,115.719a1.541,1.541,0,0,0-2.057.72h0a1.541,1.541,0,0,0,.72,2.057l20.475,9.842L35.941,131.3a1.541,1.541,0,1,0,1.337,2.777l8.92-4.046,9.041,4.046a1.541,1.541,0,1,0,1.337-2.777l-6.826-2.979L70.176,118.5a1.541,1.541,0,1,0-1.337-2.777Z" transform="translate(-13.501 -53.63)" fill="#2d2f4e" style="mix-blend-mode: multiply;isolation: isolate"/>
  </g>
</svg>
