<svg
  version="1.1"
  xmlns="http://www.w3.org/2000/svg"
  x="0px"
  y="0px"
  viewBox="0 0 49.8 74"
  style="enable-background:new 0 0 49.8 74;"
  xml:space="preserve"
>
					<g transform="translate(-7.766 -6.553)">
						<path
      d="M51.7,25.6h-15L47.3,15c0.7-0.7,0.7-1.7,0-2.4s-1.7-0.7-2.4,0L34.3,23.2v-15
						c0-0.9-0.8-1.7-1.7-1.7S31,7.3,31,8.2v15L20.4,12.6c-0.6-0.7-1.7-0.7-2.4-0.1c-0.7,0.6-0.7,1.7-0.1,2.4c0,0,0.1,0.1,0.1,0.1
						l10.6,10.6h-15c-0.9,0-1.7,0.8-1.7,1.7s0.8,1.7,1.7,1.7h15L18,39.5c-0.7,0.6-0.7,1.7-0.1,2.4c0.6,0.7,1.7,0.7,2.4,0.1
						c0,0,0.1-0.1,0.1-0.1L31,31.3v22c0,0.9,0.8,1.7,1.7,1.7s1.7-0.8,1.7-1.7v-22l10.6,10.6c0.7,0.7,1.7,0.7,2.4,0
						c0.7-0.7,0.7-1.7,0-2.4l0,0L36.7,28.9h15c0.9,0,1.7-0.8,1.7-1.7S52.6,25.6,51.7,25.6z"
    />
						<path
      d="M55.3,62.1L32.7,73L10,62.1c-0.8-0.4-1.7,0-2.1,0.7c0,0,0,0,0,0l0,0c-0.4,0.8,0,1.7,0.7,2.1
						c0,0,0,0,0,0l20.5,9.8l-6.7,3c-0.8,0.4-1.1,1.3-0.7,2.1c0.4,0.8,1.3,1.1,2.1,0.7l8.9-4l9,4c0.8,0.4,1.7,0,2.1-0.7
						c0.4-0.8,0-1.7-0.7-2.1l-6.8-3l20.4-9.8c0.8-0.4,1.1-1.3,0.7-2.1S56.1,61.7,55.3,62.1L55.3,62.1L55.3,62.1z"
    />
					</g>
				</svg>
